<?xml version="1.0" standalone="no"?>
<!DOCTYPE svg PUBLIC "-//W3C//DTD SVG 20010904//EN"
 "http://www.w3.org/TR/2001/REC-SVG-20010904/DTD/svg10.dtd">
<svg version="1.0" xmlns="http://www.w3.org/2000/svg"
 width="331.000000pt" height="331.000000pt" viewBox="0 0 331.000000 331.000000"
 preserveAspectRatio="xMidYMid meet">
<metadata>
Created by potrace 1.11, written by Peter Selinger 2001-2013
</metadata>
<g transform="translate(0.000000,331.000000) scale(0.100000,-0.100000)"
fill="#000000" stroke="none">
<path d="M648 2297 c-74 -19 -127 -85 -133 -164 -3 -56 7 -79 70 -157 26 -31
44 -60 41 -64 -4 -3 -113 -6 -244 -6 l-237 -1 -2 -112 -1 -113 36 -1 c21 -1
168 -1 329 0 325 1 328 1 385 72 22 27 31 51 35 93 6 54 4 60 -33 113 -21 30
-51 72 -67 91 -25 33 -26 37 -10 42 14 5 242 6 263 1 3 -1 5 -94 5 -208 l0
-206 114 -1 c77 -1 115 3 118 11 2 6 5 100 6 210 l2 198 132 -1 c89 -1 133 2
136 10 2 6 3 54 3 106 l-1 95 -457 0 c-252 0 -472 -4 -490 -8z"/>
<path d="M1711 2295 c-4 -5 -31 -77 -58 -160 -28 -82 -74 -217 -103 -299 -28
-81 -49 -151 -46 -154 5 -5 86 -6 192 -3 38 1 42 3 52 39 l12 38 111 1 c94 1
111 -2 116 -16 22 -71 13 -66 138 -68 66 -1 115 2 115 7 0 13 -206 610 -213
617 -9 9 -309 7 -316 -2z m198 -332 c1 -13 -60 -19 -71 -8 -3 3 4 31 15 62
l21 56 17 -49 c10 -27 18 -55 18 -61z"/>
<path d="M2308 2305 c0 0 -2 -141 -3 -312 -2 -225 1 -313 9 -314 80 -6 236 -2
239 6 1 6 2 40 2 78 0 37 1 67 3 67 2 0 22 -18 45 -39 58 -53 98 -86 123 -99
17 -9 372 -20 430 -13 11 1 13 205 2 217 -5 4 -91 8 -301 13 l-29 1 46 45 c50
50 66 92 61 157 -4 59 -17 88 -57 124 -57 54 -82 62 -213 64 -66 1 -173 2
-237 3 -65 1 -119 2 -120 2z m393 -206 c12 -20 -2 -39 -30 -40 -14 -1 -42 -2
-61 -3 -50 -4 -60 2 -60 34 l0 29 72 -4 c41 -2 74 -9 79 -16z"/>
<path d="M1219 1642 c-12 -2 -33 -51 -69 -155 -51 -148 -57 -167 -58 -177 -1
-3 -13 -36 -27 -75 -15 -38 -37 -103 -50 -142 l-23 -73 118 0 118 0 9 38 9 37
114 0 115 0 10 -32 c6 -18 13 -35 17 -38 3 -3 52 -6 109 -6 132 -1 131 -1 124
11 -5 8 -91 254 -180 515 -15 44 -32 85 -37 90 -8 9 -261 15 -299 7z m164
-279 c3 -16 9 -36 12 -45 6 -15 1 -18 -29 -18 -41 0 -42 4 -20 60 18 44 29 45
37 3z"/>
<path d="M2847 1643 c-1 -1 -34 -2 -72 -4 -77 -2 -107 -13 -147 -56 -32 -34
-48 -73 -48 -119 0 -49 20 -90 74 -152 25 -30 46 -57 46 -60 0 -6 -238 -8
-343 -3 l-28 1 41 40 c86 84 87 191 2 278 -62 63 -73 66 -334 68 l-238 3 1
-303 c1 -167 4 -308 8 -313 3 -5 59 -9 123 -10 l117 0 3 80 3 81 58 -54 c32
-29 75 -65 95 -79 l37 -26 311 1 c349 0 345 -1 408 77 27 34 31 46 31 101 0
62 -1 64 -63 144 -36 47 -58 83 -50 83 7 1 73 2 147 3 l134 1 0 109 1 109
-158 1 c-87 1 -158 0 -159 -1z m-648 -207 c21 -26 -11 -43 -83 -44 l-66 -1 0
29 0 30 69 0 c46 0 72 -4 80 -14z"/>
<path d="M160 1632 c0 -10 201 -605 206 -611 3 -3 125 -5 156 -2 3 1 26 55 50
121 23 66 46 120 49 120 3 0 15 -30 28 -67 12 -38 32 -93 42 -123 l20 -56 82
1 82 0 17 50 c9 28 53 156 98 285 45 129 85 247 90 263 l9 27 -119 0 -118 0
-27 -81 c-30 -90 -31 -90 -65 14 l-23 68 -115 -3 -116 -3 -25 -72 c-15 -40
-29 -73 -32 -73 -4 0 -14 21 -23 48 -10 26 -22 59 -28 75 l-10 27 -114 0 c-63
0 -114 -4 -114 -8z"/>
</g>
</svg>
